<?xml version="1.0" encoding="UTF-8" standalone="no"?>
<!DOCTYPE svg PUBLIC "-//W3C//DTD SVG 1.1//EN"
 "http://www.w3.org/Graphics/SVG/1.1/DTD/svg11.dtd">
<!-- Generated by graphviz version 12.1.2 (0)
 -->
<!-- Pages: 1 -->
<svg width="2397pt" height="483pt"
 viewBox="0.00 0.00 2396.54 482.75" xmlns="http://www.w3.org/2000/svg" xmlns:xlink="http://www.w3.org/1999/xlink">
<g id="graph0" class="graph" transform="scale(1 1) rotate(0) translate(4 478.75)">
<polygon fill="white" stroke="none" points="-4,4 -4,-478.75 2392.54,-478.75 2392.54,4 -4,4"/>
<!-- getUpToClass -->
<g id="node1" class="node">
<title>getUpToClass</title>
<ellipse fill="none" stroke="black" cx="62.54" cy="-456.75" rx="62.54" ry="18"/>
<text text-anchor="middle" x="62.54" y="-451.32" font-family="Times,serif" font-size="14.00">getUpToClass</text>
</g>
<!-- setUpToClass -->
<g id="node2" class="node">
<title>setUpToClass</title>
<ellipse fill="none" stroke="black" cx="62.54" cy="-369" rx="61.54" ry="18"/>
<text text-anchor="middle" x="62.54" y="-363.57" font-family="Times,serif" font-size="14.00">setUpToClass</text>
</g>
<!-- getUpToClass&#45;&#45;setUpToClass -->
<g id="edge1" class="edge">
<title>getUpToClass&#45;&#45;setUpToClass</title>
<path fill="none" stroke="black" d="M62.54,-438.4C62.54,-423.52 62.54,-402.2 62.54,-387.33"/>
<text text-anchor="middle" x="91.79" y="-407.45" font-family="Times,serif" font-size="14.00">upToClass</text>
</g>
<!-- reflectionAppendArray -->
<g id="node3" class="node">
<title>reflectionAppendArray</title>
<ellipse fill="none" stroke="black" cx="236.54" cy="-456.75" rx="93.48" ry="18"/>
<text text-anchor="middle" x="236.54" y="-451.32" font-family="Times,serif" font-size="14.00">reflectionAppendArray</text>
</g>
<!-- setAppendTransients -->
<g id="node4" class="node">
<title>setAppendTransients</title>
<ellipse fill="none" stroke="black" cx="434.54" cy="-456.75" rx="86.49" ry="18"/>
<text text-anchor="middle" x="434.54" y="-451.32" font-family="Times,serif" font-size="14.00">setAppendTransients</text>
</g>
<!-- isAppendTransients -->
<g id="node5" class="node">
<title>isAppendTransients</title>
<ellipse fill="none" stroke="black" cx="434.54" cy="-369" rx="82.5" ry="18"/>
<text text-anchor="middle" x="434.54" y="-363.57" font-family="Times,serif" font-size="14.00">isAppendTransients</text>
</g>
<!-- setAppendTransients&#45;&#45;isAppendTransients -->
<g id="edge2" class="edge">
<title>setAppendTransients&#45;&#45;isAppendTransients</title>
<path fill="none" stroke="black" d="M434.54,-438.4C434.54,-423.52 434.54,-402.2 434.54,-387.33"/>
<text text-anchor="middle" x="482.17" y="-407.45" font-family="Times,serif" font-size="14.00">appendTransients</text>
</g>
<!-- toNoNullStringArray -->
<g id="node6" class="node">
<title>toNoNullStringArray</title>
<ellipse fill="none" stroke="black" cx="627.54" cy="-456.75" rx="88.49" ry="18"/>
<text text-anchor="middle" x="627.54" y="-451.32" font-family="Times,serif" font-size="14.00">toNoNullStringArray</text>
</g>
<!-- isAppendStatics -->
<g id="node7" class="node">
<title>isAppendStatics</title>
<ellipse fill="none" stroke="black" cx="807.54" cy="-369" rx="69.03" ry="18"/>
<text text-anchor="middle" x="807.54" y="-363.57" font-family="Times,serif" font-size="14.00">isAppendStatics</text>
</g>
<!-- isExcludeNullValues -->
<g id="node8" class="node">
<title>isExcludeNullValues</title>
<ellipse fill="none" stroke="black" cx="1052.54" cy="-456.75" rx="86.49" ry="18"/>
<text text-anchor="middle" x="1052.54" y="-451.32" font-family="Times,serif" font-size="14.00">isExcludeNullValues</text>
</g>
<!-- toString -->
<g id="node9" class="node">
<title>toString</title>
<ellipse fill="none" stroke="black" cx="934.54" cy="-369" rx="39.59" ry="18"/>
<text text-anchor="middle" x="934.54" y="-363.57" font-family="Times,serif" font-size="14.00">toString</text>
</g>
<!-- isExcludeNullValues&#45;&#45;toString -->
<g id="edge3" class="edge">
<title>isExcludeNullValues&#45;&#45;toString</title>
<path fill="none" stroke="black" d="M976.83,-447.75C960.94,-442.46 945.94,-434.04 935.79,-420.75 928.62,-411.36 928.62,-397.9 930.24,-387.2"/>
<text text-anchor="middle" x="987.17" y="-407.45" font-family="Times,serif" font-size="14.00">excludeNullValues</text>
</g>
<!-- appendFieldsIn -->
<g id="node10" class="node">
<title>appendFieldsIn</title>
<ellipse fill="none" stroke="black" cx="1059.54" cy="-281.25" rx="66.53" ry="18"/>
<text text-anchor="middle" x="1059.54" y="-275.82" font-family="Times,serif" font-size="14.00">appendFieldsIn</text>
</g>
<!-- isExcludeNullValues&#45;&#45;appendFieldsIn -->
<g id="edge4" class="edge">
<title>isExcludeNullValues&#45;&#45;appendFieldsIn</title>
<path fill="none" stroke="black" d="M1053.24,-438.48C1054.58,-405.31 1057.49,-333.03 1058.84,-299.71"/>
<text text-anchor="middle" x="1108.11" y="-363.57" font-family="Times,serif" font-size="14.00">excludeNullValues</text>
</g>
<!-- setExcludeNullValues -->
<g id="node11" class="node">
<title>setExcludeNullValues</title>
<ellipse fill="none" stroke="black" cx="1059.54" cy="-193.5" rx="90.48" ry="18"/>
<text text-anchor="middle" x="1059.54" y="-188.07" font-family="Times,serif" font-size="14.00">setExcludeNullValues</text>
</g>
<!-- isExcludeNullValues&#45;&#45;setExcludeNullValues -->
<g id="edge5" class="edge">
<title>isExcludeNullValues&#45;&#45;setExcludeNullValues</title>
<path fill="none" stroke="black" d="M1096.12,-440.78C1120.54,-429.92 1148.93,-412.59 1163.54,-387 1198.25,-326.2 1207.64,-286.18 1166.54,-229.5 1158.05,-217.79 1145.53,-209.93 1132.01,-204.66"/>
<text text-anchor="middle" x="1243.47" y="-319.7" font-family="Times,serif" font-size="14.00">excludeNullValues</text>
</g>
<!-- toString&#45;&#45;appendFieldsIn -->
<g id="edge26" class="edge">
<title>toString&#45;&#45;appendFieldsIn</title>
<path fill="none" stroke="black" d="M930.19,-350.77C928.55,-340.05 928.55,-326.58 935.79,-317.25 940.58,-311.08 977.14,-301.19 1009.29,-293.49"/>
<text text-anchor="middle" x="987.17" y="-319.7" font-family="Times,serif" font-size="14.00">excludeNullValues</text>
</g>
<!-- toString&#45;&#45;setExcludeNullValues -->
<g id="edge27" class="edge">
<title>toString&#45;&#45;setExcludeNullValues</title>
<path fill="none" stroke="black" d="M916.49,-352.75C893.84,-331.73 860.31,-293.07 880.79,-263.25 903.94,-229.54 946.11,-212.35 983.68,-203.59"/>
<text text-anchor="middle" x="932.17" y="-275.82" font-family="Times,serif" font-size="14.00">excludeNullValues</text>
</g>
<!-- appendFieldsIn&#45;&#45;setExcludeNullValues -->
<g id="edge6" class="edge">
<title>appendFieldsIn&#45;&#45;setExcludeNullValues</title>
<path fill="none" stroke="black" d="M1059.54,-262.9C1059.54,-248.02 1059.54,-226.7 1059.54,-211.83"/>
<text text-anchor="middle" x="1110.92" y="-231.95" font-family="Times,serif" font-size="14.00">excludeNullValues</text>
</g>
<!-- toStringExclude -->
<g id="node12" class="node">
<title>toStringExclude</title>
<ellipse fill="none" stroke="black" cx="1423.54" cy="-281.25" rx="68.53" ry="18"/>
<text text-anchor="middle" x="1423.54" y="-275.82" font-family="Times,serif" font-size="14.00">toStringExclude</text>
</g>
<!-- accept -->
<g id="node13" class="node">
<title>accept</title>
<ellipse fill="none" stroke="black" cx="1664.54" cy="-193.5" rx="33.6" ry="18"/>
<text text-anchor="middle" x="1664.54" y="-188.07" font-family="Times,serif" font-size="14.00">accept</text>
</g>
<!-- toStringExclude&#45;&#45;accept -->
<g id="edge7" class="edge">
<title>toStringExclude&#45;&#45;accept</title>
<path fill="none" stroke="black" d="M1436.55,-263.45C1446.31,-252.05 1460.67,-237.64 1476.54,-229.5 1526.17,-204.05 1591.63,-196.93 1630.76,-195.04"/>
<text text-anchor="middle" x="1530.54" y="-231.95" font-family="Times,serif" font-size="14.00">excludeFieldNames</text>
</g>
<!-- validate -->
<g id="node14" class="node">
<title>validate</title>
<ellipse fill="none" stroke="black" cx="1799.54" cy="-18" rx="38.59" ry="18"/>
<text text-anchor="middle" x="1799.54" y="-12.57" font-family="Times,serif" font-size="14.00">validate</text>
</g>
<!-- toStringExclude&#45;&#45;validate -->
<g id="edge8" class="edge">
<title>toStringExclude&#45;&#45;validate</title>
<path fill="none" stroke="black" d="M1429.05,-263.02C1438.54,-235.28 1460,-179.98 1491.54,-141.75 1532.68,-91.88 1548.36,-80 1607.54,-54 1657.79,-31.92 1721.33,-23.77 1761.22,-20.76"/>
<text text-anchor="middle" x="1545.54" y="-144.2" font-family="Times,serif" font-size="14.00">excludeFieldNames</text>
</g>
<!-- accept&#45;&#45;validate -->
<g id="edge9" class="edge">
<title>accept&#45;&#45;validate</title>
<path fill="none" stroke="black" d="M1643.96,-179.09C1615.7,-158.98 1570.86,-119.95 1594.04,-87.75 1632.07,-34.93 1712.55,-22.1 1760.73,-19.34"/>
<text text-anchor="middle" x="1647.29" y="-100.33" font-family="Times,serif" font-size="14.00">includeFieldNames</text>
</g>
<!-- setIncludeFieldNames -->
<g id="node15" class="node">
<title>setIncludeFieldNames</title>
<ellipse fill="none" stroke="black" cx="1801.54" cy="-105.75" rx="91.98" ry="18"/>
<text text-anchor="middle" x="1801.54" y="-100.33" font-family="Times,serif" font-size="14.00">setIncludeFieldNames</text>
</g>
<!-- accept&#45;&#45;setIncludeFieldNames -->
<g id="edge10" class="edge">
<title>accept&#45;&#45;setIncludeFieldNames</title>
<path fill="none" stroke="black" d="M1663.02,-175.44C1663,-164.52 1664.89,-150.76 1673.04,-141.75 1685.3,-128.2 1702.22,-119.69 1719.77,-114.38"/>
<text text-anchor="middle" x="1726.29" y="-144.2" font-family="Times,serif" font-size="14.00">includeFieldNames</text>
</g>
<!-- setIncludeFieldNames&#45;&#45;validate -->
<g id="edge28" class="edge">
<title>setIncludeFieldNames&#45;&#45;validate</title>
<path fill="none" stroke="black" d="M1801.14,-87.4C1800.79,-72.52 1800.29,-51.2 1799.94,-36.33"/>
<text text-anchor="middle" x="1853.97" y="-56.45" font-family="Times,serif" font-size="14.00">includeFieldNames</text>
</g>
<!-- getValue -->
<g id="node16" class="node">
<title>getValue</title>
<ellipse fill="none" stroke="black" cx="1750.54" cy="-456.75" rx="42.58" ry="18"/>
<text text-anchor="middle" x="1750.54" y="-451.32" font-family="Times,serif" font-size="14.00">getValue</text>
</g>
<!-- setExcludeFieldNames -->
<g id="node17" class="node">
<title>setExcludeFieldNames</title>
<ellipse fill="none" stroke="black" cx="1595.54" cy="-456.75" rx="93.98" ry="18"/>
<text text-anchor="middle" x="1595.54" y="-451.32" font-family="Times,serif" font-size="14.00">setExcludeFieldNames</text>
</g>
<!-- setExcludeFieldNames&#45;&#45;toStringExclude -->
<g id="edge12" class="edge">
<title>setExcludeFieldNames&#45;&#45;toStringExclude</title>
<path fill="none" stroke="black" d="M1515.07,-447.14C1440.75,-437.34 1338.25,-418.46 1313.54,-387 1285.36,-351.12 1345.5,-315.9 1387.46,-296.83"/>
<text text-anchor="middle" x="1367.54" y="-363.57" font-family="Times,serif" font-size="14.00">excludeFieldNames</text>
</g>
<!-- setExcludeFieldNames&#45;&#45;accept -->
<g id="edge13" class="edge">
<title>setExcludeFieldNames&#45;&#45;accept</title>
<path fill="none" stroke="black" d="M1629.28,-439.54C1636.45,-434.52 1643.16,-428.28 1647.54,-420.75 1657.96,-402.83 1662.74,-261.41 1664.11,-211.7"/>
<text text-anchor="middle" x="1713.74" y="-319.7" font-family="Times,serif" font-size="14.00">excludeFieldNames</text>
</g>
<!-- setExcludeFieldNames&#45;&#45;validate -->
<g id="edge14" class="edge">
<title>setExcludeFieldNames&#45;&#45;validate</title>
<path fill="none" stroke="black" d="M1663.9,-444.02C1675.45,-442.16 1687.33,-440.34 1698.54,-438.75 1763.01,-429.63 2280.54,-435.12 2280.54,-370 2280.54,-370 2280.54,-370 2280.54,-104.75 2280.54,-59.85 1951.45,-30.56 1837.69,-21.78"/>
<text text-anchor="middle" x="2334.54" y="-231.95" font-family="Times,serif" font-size="14.00">excludeFieldNames</text>
</g>
<!-- getExcludeFieldNames -->
<g id="node18" class="node">
<title>getExcludeFieldNames</title>
<ellipse fill="none" stroke="black" cx="1525.54" cy="-369" rx="94.98" ry="18"/>
<text text-anchor="middle" x="1525.54" y="-363.57" font-family="Times,serif" font-size="14.00">getExcludeFieldNames</text>
</g>
<!-- setExcludeFieldNames&#45;&#45;getExcludeFieldNames -->
<g id="edge11" class="edge">
<title>setExcludeFieldNames&#45;&#45;getExcludeFieldNames</title>
<path fill="none" stroke="black" d="M1560.89,-439.67C1552.93,-434.59 1545.16,-428.29 1539.54,-420.75 1532.33,-411.08 1528.83,-397.89 1527.14,-387.38"/>
<text text-anchor="middle" x="1593.54" y="-407.45" font-family="Times,serif" font-size="14.00">excludeFieldNames</text>
</g>
<!-- getExcludeFieldNames&#45;&#45;toStringExclude -->
<g id="edge15" class="edge">
<title>getExcludeFieldNames&#45;&#45;toStringExclude</title>
<path fill="none" stroke="black" d="M1444.79,-359.32C1429.87,-353.95 1416.02,-345.67 1406.54,-333 1399.08,-323.03 1404.09,-309.59 1410.56,-299.05"/>
<text text-anchor="middle" x="1460.54" y="-319.7" font-family="Times,serif" font-size="14.00">excludeFieldNames</text>
</g>
<!-- getExcludeFieldNames&#45;&#45;accept -->
<g id="edge16" class="edge">
<title>getExcludeFieldNames&#45;&#45;accept</title>
<path fill="none" stroke="black" d="M1523.61,-350.81C1522.03,-328.28 1522.69,-288.65 1542.54,-263.25 1555.05,-247.25 1566.58,-254.72 1584.54,-245.25 1605.78,-234.05 1628.82,-219.12 1644.69,-208.36"/>
<text text-anchor="middle" x="1596.54" y="-275.82" font-family="Times,serif" font-size="14.00">excludeFieldNames</text>
</g>
<!-- getExcludeFieldNames&#45;&#45;validate -->
<g id="edge17" class="edge">
<title>getExcludeFieldNames&#45;&#45;validate</title>
<path fill="none" stroke="black" d="M1466.37,-354.55C1407.71,-339.45 1326.54,-313 1326.54,-282.25 1326.54,-282.25 1326.54,-282.25 1326.54,-104.75 1326.54,-60.62 1649.39,-30.88 1761.63,-21.87"/>
<text text-anchor="middle" x="1380.54" y="-188.07" font-family="Times,serif" font-size="14.00">excludeFieldNames</text>
</g>
<!-- setAppendStatics -->
<g id="node19" class="node">
<title>setAppendStatics</title>
<ellipse fill="none" stroke="black" cx="807.54" cy="-456.75" rx="73.02" ry="18"/>
<text text-anchor="middle" x="807.54" y="-451.32" font-family="Times,serif" font-size="14.00">setAppendStatics</text>
</g>
<!-- setAppendStatics&#45;&#45;isAppendStatics -->
<g id="edge18" class="edge">
<title>setAppendStatics&#45;&#45;isAppendStatics</title>
<path fill="none" stroke="black" d="M807.54,-438.4C807.54,-423.52 807.54,-402.2 807.54,-387.33"/>
<text text-anchor="middle" x="845.04" y="-407.45" font-family="Times,serif" font-size="14.00">appendStatics</text>
</g>
<!-- getIncludeFieldNames -->
<g id="node20" class="node">
<title>getIncludeFieldNames</title>
<ellipse fill="none" stroke="black" cx="1962.54" cy="-369" rx="92.98" ry="18"/>
<text text-anchor="middle" x="1962.54" y="-363.57" font-family="Times,serif" font-size="14.00">getIncludeFieldNames</text>
</g>
<!-- getIncludeFieldNames&#45;&#45;accept -->
<g id="edge20" class="edge">
<title>getIncludeFieldNames&#45;&#45;accept</title>
<path fill="none" stroke="black" d="M1908.56,-353.92C1839.14,-335.64 1726.55,-305.36 1719.04,-299.25 1704.33,-287.28 1682.42,-237.91 1671.4,-211.44"/>
<text text-anchor="middle" x="1772.29" y="-275.82" font-family="Times,serif" font-size="14.00">includeFieldNames</text>
</g>
<!-- getIncludeFieldNames&#45;&#45;validate -->
<g id="edge22" class="edge">
<title>getIncludeFieldNames&#45;&#45;validate</title>
<path fill="none" stroke="black" d="M2045.47,-360.59C2093.89,-351.19 2145.54,-329.97 2145.54,-282.25 2145.54,-282.25 2145.54,-282.25 2145.54,-104.75 2145.54,-42.01 1928.51,-24.86 1838.22,-20.44"/>
<text text-anchor="middle" x="2198.79" y="-188.07" font-family="Times,serif" font-size="14.00">includeFieldNames</text>
</g>
<!-- getIncludeFieldNames&#45;&#45;setIncludeFieldNames -->
<g id="edge21" class="edge">
<title>getIncludeFieldNames&#45;&#45;setIncludeFieldNames</title>
<path fill="none" stroke="black" d="M1992.4,-351.49C1999.06,-346.42 2005.38,-340.23 2009.54,-333 2014.87,-323.74 2036.5,-149.86 2029.54,-141.75 2011.74,-121.01 1948.1,-112.44 1892.57,-108.95"/>
<text text-anchor="middle" x="2078.11" y="-231.95" font-family="Times,serif" font-size="14.00">includeFieldNames</text>
</g>
<!-- toStringInclude -->
<g id="node21" class="node">
<title>toStringInclude</title>
<ellipse fill="none" stroke="black" cx="1901.54" cy="-281.25" rx="66.53" ry="18"/>
<text text-anchor="middle" x="1901.54" y="-275.82" font-family="Times,serif" font-size="14.00">toStringInclude</text>
</g>
<!-- getIncludeFieldNames&#45;&#45;toStringInclude -->
<g id="edge19" class="edge">
<title>getIncludeFieldNames&#45;&#45;toStringInclude</title>
<path fill="none" stroke="black" d="M1923.15,-352.44C1915.18,-347.44 1907.8,-341.05 1903.04,-333 1897.12,-322.99 1896.9,-309.81 1898.09,-299.39"/>
<text text-anchor="middle" x="1956.29" y="-319.7" font-family="Times,serif" font-size="14.00">includeFieldNames</text>
</g>
<!-- toStringInclude&#45;&#45;accept -->
<g id="edge23" class="edge">
<title>toStringInclude&#45;&#45;accept</title>
<path fill="none" stroke="black" d="M1850.33,-269.34C1840.77,-267.31 1830.85,-265.21 1821.54,-263.25 1783.11,-255.17 1770.98,-261.07 1735.04,-245.25 1729.42,-242.77 1702.37,-222.88 1683.47,-208.75"/>
<text text-anchor="middle" x="1788.29" y="-231.95" font-family="Times,serif" font-size="14.00">includeFieldNames</text>
</g>
<!-- toStringInclude&#45;&#45;validate -->
<g id="edge25" class="edge">
<title>toStringInclude&#45;&#45;validate</title>
<path fill="none" stroke="black" d="M1908.59,-262.99C1924.11,-221.89 1956.17,-116.98 1907.54,-54 1891.22,-32.86 1861.92,-24.29 1837.95,-20.91"/>
<text text-anchor="middle" x="1986.64" y="-144.2" font-family="Times,serif" font-size="14.00">includeFieldNames</text>
</g>
<!-- toStringInclude&#45;&#45;setIncludeFieldNames -->
<g id="edge24" class="edge">
<title>toStringInclude&#45;&#45;setIncludeFieldNames</title>
<path fill="none" stroke="black" d="M1883.69,-263.43C1872.15,-253.01 1856.54,-239.71 1841.54,-229.5 1827.57,-219.99 1817.16,-225.73 1808.04,-211.5 1790.94,-184.81 1794.08,-146.01 1797.85,-123.89"/>
<text text-anchor="middle" x="1861.29" y="-188.07" font-family="Times,serif" font-size="14.00">includeFieldNames</text>
</g>
</g>
</svg>
